External Loads File
version=1
nRows=46
nColumns=13
Range=5.000000e-03-10 seconds
endheader
time 	forceRightX 	forceRightY 	forceRightZ 	pointRightX 	pointRightY 	pointRightZ 	forceLeftX 	forceLeftY 	forceLeftZ 	pointLeftX 	pointLeftY 	pointLeftZ 		
7.505000 108.701193 435.913564 -0.000000 0.301941 0.157270 -0.097910 -39.670437 -10.633426 -0.000000 0.208329 0.482474 -0.340623
7.510000 117.830271 394.987018 -0.000000 0.292686 0.154381 -0.097694 -47.267362 -3.877389 -0.000000 0.217698 0.486387 -0.340576
7.515000 126.833153 357.603091 -0.000000 0.283041 0.151606 -0.097570 -53.991927 4.051102 -0.000000 0.226828 0.489891 -0.340674
7.520000 136.283646 323.763016 -0.000000 0.272924 0.150216 -0.097504 -59.901254 12.869600 -0.000000 0.235943 0.492757 -0.340873
7.525000 146.483100 292.948236 -0.000000 0.262457 0.149345 -0.097591 -65.025538 22.457754 -0.000000 0.245192 0.494950 -0.340829
7.530000 156.636745 264.604466 -0.000000 0.251990 0.149240 -0.097558 -69.402941 32.697952 -0.000000 0.254377 0.496348 -0.340937
7.535000 166.043933 237.845800 -0.000000 0.241481 0.149854 -0.097674 -73.101981 43.623091 -0.000000 0.263306 0.497133 -0.341414
7.540000 173.678878 211.921961 -0.000000 0.231209 0.151039 -0.097799 -76.346299 55.275147 -0.000000 0.271889 0.497183 -0.341276
7.545000 179.018436 185.881631 -0.000000 0.221204 0.152820 -0.097951 -79.365181 67.971526 -0.000000 0.280519 0.496291 -0.341700
7.550000 181.134155 159.564891 -0.000000 0.211592 0.155242 -0.098157 -82.631453 81.925666 -0.000000 0.288708 0.494871 -0.341861
7.555000 179.935539 132.718830 -0.000000 0.202307 0.158273 -0.098340 -86.536033 97.621868 -0.000000 0.296530 0.492755 -0.342202
7.560000 175.620065 105.450909 -0.000000 0.193388 0.161925 -0.098327 -91.486439 115.628272 -0.000000 0.304034 0.489831 -0.342544
7.565000 168.626628 78.246271 -0.000000 0.184757 0.166103 -0.098218 -97.896505 136.579191 -0.000000 0.311147 0.486268 -0.342924
7.570000 159.658887 51.678894 -0.000000 0.176078 0.171053 -0.098475 -105.940837 161.234721 -0.000000 0.317903 0.482137 -0.343211
7.575000 149.338338 26.934373 -0.000000 0.167707 0.176612 -0.098301 -116.034052 189.980278 -0.000000 0.324289 0.477321 -0.343531
7.580000 138.429266 5.153773 -0.000000 0.159795 0.182705 -0.098330 -128.460767 222.957656 -0.000000 0.330434 0.471920 -0.343760
7.585000 127.695909 -12.743661 -0.000000 0.152189 0.189151 -0.098399 -143.172862 260.014118 -0.000000 0.336282 0.465584 -0.344079
7.590000 117.810873 -26.085313 -0.000000 0.144979 0.196014 -0.098407 -159.862496 300.556907 -0.000000 0.341860 0.458243 -0.344332
7.595000 109.341113 -34.587492 -0.000000 0.138274 0.203369 -0.098508 -178.066000 343.560802 -0.000000 0.347303 0.450372 -0.344363
7.600000 102.645533 -38.609321 -0.000000 0.131922 0.211129 -0.098362 -196.695396 387.995383 -0.000000 0.352732 0.441935 -0.344496
7.605000 97.951460 -38.706597 -0.000000 0.126032 0.219305 -0.098329 -215.382975 432.364388 -0.000000 0.357787 0.433166 -0.344408
7.610000 95.193114 -35.898287 -0.000000 0.120723 0.228044 -0.098141 -233.160927 475.614416 -0.000000 0.362537 0.423980 -0.344293
7.615000 94.139875 -31.134423 -0.000000 0.115974 0.237021 -0.098093 -249.782029 516.631275 -0.000000 0.366999 0.414420 -0.344232
7.620000 94.389422 -25.273127 -0.000000 0.111619 0.246355 -0.098161 -265.093175 554.650171 -0.000000 0.371042 0.404733 -0.344033
7.625000 95.494546 -18.925417 -0.000000 0.108232 0.255930 -0.098070 -279.334027 589.178606 -0.000000 0.374818 0.394759 -0.343786
7.630000 97.028710 -12.625650 -0.000000 0.105264 0.265718 -0.097755 -292.207037 620.452533 -0.000000 0.378062 0.384468 -0.343443
7.635000 98.679173 -6.661591 -0.000000 0.102899 0.275643 -0.097836 -304.104156 648.754306 -0.000000 0.381010 0.374006 -0.343281
7.640000 100.225967 -1.442935 -0.000000 0.101154 0.285759 -0.097901 -313.794195 675.344834 -0.000000 0.383456 0.362806 -0.343138
7.645000 101.568067 3.262127 -0.000000 0.100195 0.296011 -0.097783 -323.673950 699.862317 -0.000000 0.385176 0.351963 -0.343206
7.650000 102.634111 7.023120 -0.000000 0.099651 0.306582 -0.097914 -331.312309 724.094025 -0.000000 0.386733 0.340990 -0.342893
7.655000 103.323634 9.940530 -0.000000 0.099716 0.317041 -0.097994 -337.643566 748.021955 -0.000000 0.387894 0.329978 -0.342614
7.660000 103.496344 11.747654 -0.000000 0.100243 0.327722 -0.098350 -340.683207 772.638611 -0.000000 0.388461 0.318770 -0.342758
7.665000 102.913192 12.658695 -0.000000 0.100794 0.338320 -0.099284 -341.485694 797.217883 -0.000000 0.388244 0.307742 -0.342198
7.670000 101.356484 12.555283 -0.000000 0.102716 0.349062 -0.099412 -338.185780 821.995667 -0.000000 0.387558 0.296824 -0.341981
7.675000 98.596310 11.584090 -0.000000 0.105129 0.359749 -0.099691 -330.685884 846.202832 -0.000000 0.386315 0.285988 -0.341845
7.680000 94.438585 9.850646 -0.000000 0.108200 0.370316 -0.099985 -318.661479 869.044743 -0.000000 0.384572 0.275240 -0.341649
7.685000 88.745526 7.396875 -0.000000 0.112133 0.380805 -0.099987 -301.443010 889.754041 -0.000000 0.382222 0.264608 -0.341506
7.690000 81.446200 4.435127 -0.000000 0.116118 0.391180 -0.100345 -280.429046 906.833969 -0.000000 0.379329 0.254218 -0.341429
7.695000 72.591661 0.940537 -0.000000 0.120858 0.401329 -0.100607 -254.964153 919.558428 -0.000000 0.375851 0.243975 -0.341338
7.700000 62.324970 -2.909890 -0.000000 0.126208 0.411214 -0.100956 -226.518628 926.666503 -0.000000 0.371945 0.234129 -0.341233
7.705000 50.903824 -7.016817 -0.000000 0.132024 0.420997 -0.101280 -195.135236 927.535743 -0.000000 0.367492 0.224657 -0.341111
7.710000 38.705204 -11.204382 -0.000000 0.139166 0.430216 -0.100724 -161.558017 921.655796 -0.000000 0.362618 0.215805 -0.341002
7.715000 26.207563 -15.298481 -0.000000 0.145932 0.439221 -0.101004 -128.070930 908.676830 -0.000000 0.357199 0.207261 -0.340881
7.720000 13.891422 -19.261029 -0.000000 0.152186 0.447511 -0.102359 -97.032114 888.833965 -0.000000 0.351353 0.198917 -0.340884
7.725000 1.923980 -23.163884 -0.000000 0.160820 0.455727 -0.101269 -61.864246 863.567659 -0.000000 0.345120 0.190783 -0.340934
7.730000 -9.310614 -26.805973 -0.000000 0.168586 0.462983 -0.102270 -31.485512 832.912111 -0.000000 0.338427 0.182700 -0.340964
